<svg id="Capa_1" enable-background="new 0 0 497 497" height="512" viewBox="0 0 497 497" width="512" xmlns="http://www.w3.org/2000/svg"><g><path d="m237.521 143.502s-38.448 0-46.732 0-15 6.716-15 15 6.716 15 15 15 53.366-.001 53.366-.001z" fill="#eff2f7"/><path d="m224.254 83.502s-38.448 0-46.732 0-15 6.716-15 15 6.716 15 15 15 53.366-.001 53.366-.001z" fill="#eff2f7"/><path d="m236.476 24.876c-7.623-15.245-23.204-24.875-40.249-24.875h-11.098c-4.795 0-8.358 4.438-7.323 9.119l4.617 20.881 98.366 218.501 45-45z" fill="#bbc4d4"/><path d="m196.227 30.001h-13.804l38.366 173.501v45l71.459-45-82.604-165.209c-2.558-5.115-7.699-8.292-13.417-8.292z" fill="#d6dde8"/><path d="m237.521 353.498s-38.448 0-46.732 0-15-6.716-15-15 6.716-15 15-15 53.366.001 53.366.001z" fill="#eff2f7"/><path d="m224.254 413.498s-38.448 0-46.732 0-15-6.716-15-15 6.716-15 15-15 53.366.001 53.366.001z" fill="#eff2f7"/><path d="m236.476 472.124c-7.623 15.245-23.204 24.875-40.249 24.875h-11.098c-4.795 0-8.358-4.438-7.323-9.119l4.617-20.881 98.366-218.501 45 45z" fill="#bbc4d4"/><path d="m196.227 466.999h-13.804l38.366-173.501v-45l71.459 45-82.604 165.209c-2.558 5.115-7.699 8.292-13.417 8.292z" fill="#d6dde8"/><path d="m492.61 267.891-4.39-4.39-48.65-15v45h42.43c8.28 0 15-6.72 15-15 0-4.14-1.68-7.89-4.39-10.61z" fill="#5ba8a1"/><path d="m450.18 267.891-4.39-4.39-445.77-58.45c.82 49 40.79 88.45 89.98 88.45h235.789l15-15 15 15h83.781c8.29 0 15-6.71 15-15 0-4.14-1.67-7.89-4.39-10.61z" fill="#70c1b8"/><path d="m90 203.501v45l-90-45v-82.5c0-4.142 3.358-7.5 7.5-7.5h3.96c11.363 0 21.75 6.42 26.831 16.583l29.999 59.997c4.11 8.23 12.52 13.42 21.71 13.42z" fill="#86d9d0"/><path d="m445.79 221.071c-11.26-11.25-26.52-17.57-42.43-17.57h-42.42v45l84.85 15h42.43z" fill="#d6dde8"/><path d="m403.36 221.071c-11.25-11.25-26.51-17.57-42.42-17.57h-360.94c0 .52.01 1.03.02 1.55.82 32.42 27.36 58.45 59.98 58.45h385.79z" fill="#eff2f7"/><path d="m340.789 233.501c-8.284 0-15 6.716-15 15v44.998l30 .002s0-36.716 0-45-6.716-15-15-15z" fill="#86d9d0"/><g fill="#8897b1"><circle cx="385.789" cy="233.5" r="7.5"/><circle cx="415.789" cy="233.5" r="7.5"/><circle cx="265.789" cy="233.5" r="7.5"/><circle cx="295.789" cy="233.5" r="7.5"/><circle cx="205.789" cy="233.5" r="7.5"/><circle cx="235.789" cy="233.5" r="7.5"/><circle cx="145.789" cy="233.5" r="7.5"/><circle cx="175.789" cy="233.5" r="7.5"/></g></g></svg>