<svg id="Capa_1" enable-background="new 0 0 512 512" height="512" viewBox="0 0 512 512" width="512" xmlns="http://www.w3.org/2000/svg"><g><g><path d="m0 256c0 141.385 114.615 256 256 256l33.642-256-33.642-256c-141.385 0-256 114.615-256 256z" fill="#fff083"/><path d="m256 0v512c141.385 0 256-114.615 256-256s-114.615-256-256-256z" fill="#ffda2d"/></g><g><g><g><path d="m380.128 261.421-44.583-30.841-54.159 2.358 15.554-51.931-18.979-50.779 54.196-1.254 42.429-33.742 17.94 51.155 45.202 29.926-43.108 32.87z" fill="#ffb64c"/></g><g><path d="m131.872 261.421-14.492-52.237-43.108-32.87 45.202-29.926 17.94-51.155 42.429 33.742 54.196 1.254-18.979 50.779 15.554 51.931-54.159-2.358z" fill="#ffda2d"/></g></g></g><g><path d="m117.046 301.757v15c0 14.662 2.29 28.798 6.519 42.077l132.435 48.439 25.168-75.181-25.168-30.335z" fill="#e7ffff"/><path d="m256 301.757v105.516l132.435-48.438c4.229-13.279 6.519-27.415 6.519-42.077v-15h-138.954z" fill="#daf2fe"/></g><g><path d="m123.565 358.834c17.869 56.113 70.478 96.877 132.435 96.877l25.168-48.438-25.168-48.439z" fill="#ffda2d"/></g><path d="m256 358.834v96.877c61.957 0 114.567-40.764 132.435-96.877z" fill="#ffb64c"/></g></svg>