<svg id="Capa_1" enable-background="new 0 0 512 512" height="512" viewBox="0 0 512 512" width="512" xmlns="http://www.w3.org/2000/svg"><g><g><g><g><g fill="#95d6a4"><path d="m149.185 64.171c49.14 61.696 106.815 112.65 106.815 112.65s57.675-50.953 106.815-112.65c18.213-22.867 1.766-56.671-27.468-56.671h-158.694c-29.234 0-45.681 33.804-27.468 56.671z"/><path d="m317.868 107.656h-123.737c-67.593 65.125-166.375 173.609-166.375 251.408 0 1.328.013 2.653.039 3.975 1.533 78.806 66.839 141.461 145.661 141.461h165.089c78.821 0 144.127-62.655 145.661-141.462.026-1.322.039-2.647.039-3.975-.001-77.798-98.783-186.282-166.377-251.407z"/></g><g fill="#77ce8e"><path d="m307.82 64.171c-13.446 16.882-27.53 32.955-40.897 47.405 8.956 8.701 18.4 18.117 28.04 28.075 19.956-20.051 44.84-46.587 67.853-75.48 18.212-22.867 1.765-56.671-27.469-56.671h-54.995c29.233 0 45.681 33.804 27.468 56.671z"/><path d="m317.868 107.656h-47.347c-1.203 1.314-2.407 2.631-3.599 3.92 67.416 65.49 162.326 171.228 162.326 247.488 0 1.328-.013 2.653-.039 3.975-1.532 78.806-66.839 141.461-145.66 141.461h54.995c78.821 0 144.128-62.655 145.661-141.462.026-1.322.039-2.647.039-3.975 0-77.798-98.782-186.282-166.376-251.407z"/></g><path d="m336.749 132.493h-161.498c-10.095 0-18.278-8.183-18.278-18.278 0-10.095 8.183-18.278 18.278-18.278h161.498c10.095 0 18.278 8.183 18.278 18.278 0 10.095-8.183 18.278-18.278 18.278z" fill="#e7a561"/></g></g><g><circle cx="256" cy="321.569" fill="#fff0af" r="118.148"/><path d="m256 203.42c-9.604 0-18.936 1.154-27.876 3.317 51.797 12.53 90.273 59.184 90.273 114.832s-38.475 102.301-90.273 114.831c8.939 2.162 18.272 3.317 27.876 3.317 65.251 0 118.148-52.897 118.148-118.148s-52.897-118.149-118.148-118.149z" fill="#ffe07d"/></g></g><path d="m355.027 114.215c0-10.095-8.183-18.278-18.278-18.278h-55.683c-7.914 8.757-7.552 22.186.823 30.504l6.093 6.052h48.767c10.095 0 18.278-8.183 18.278-18.278z" fill="#db6938"/><g><g><path d="m255.231 406.97c4.143 0 7.5-3.358 7.5-7.5v-10.875c37.503-6.559 48.104-60.726 8.307-74.795-2.991-1.057-5.748-2.069-8.307-3.048v-42.667c7.499 1.436 11.99 5.282 12.338 5.588 3.046 2.766 7.758 2.561 10.553-.469 2.809-3.045 2.617-7.79-.428-10.598-.486-.448-8.831-7.954-22.463-9.703v-9.235c0-4.142-3.357-7.5-7.5-7.5s-7.5 3.358-7.5 7.5v9.815c-1.517.307-3.07.693-4.657 1.171-25.178 7.584-31.549 41.71-13.512 55.856 4.551 3.57 10.259 6.838 18.169 10.316v53.323c-7.466-.39-12.247-1.934-20.423-7.282-3.465-2.268-8.114-1.296-10.382 2.17s-1.296 8.115 2.171 10.382c11.133 7.284 18.64 9.282 28.634 9.731v10.319c0 4.143 3.358 7.501 7.5 7.501zm-16.412-108.263c-8.381-6.573-5.039-25.589 8.581-29.691.112-.034.22-.06.331-.092v35.313c-3.648-1.872-6.56-3.685-8.912-5.53zm27.219 29.235c23.833 8.424 17.379 39.245-3.307 45.25v-46.434c1.074.389 2.175.784 3.307 1.184z"/><path d="m443.641 239.901c-22.481-32.807-52.567-68.67-89.484-106.692 5.141-4.716 8.371-11.484 8.371-18.994 0-9.547-5.221-17.891-12.953-22.346 6.745-7.83 13.15-15.544 19.107-23.025 22.126-27.78 2.168-68.844-33.335-68.844h-158.694c-35.516 0-55.451 41.076-33.335 68.843 5.958 7.481 12.362 15.195 19.107 23.025-7.732 4.455-12.953 12.8-12.953 22.346 0 7.51 3.23 14.278 8.371 18.994-36.917 38.022-67.003 73.885-89.484 106.692-31.919 46.58-48.104 86.672-48.104 119.163 0 87.709 71.062 152.936 153.2 152.936h165.088c82.143 0 153.2-65.233 153.2-152.936.001-32.49-16.183-72.582-48.102-119.162zm-266.988-224.901h158.693c22.923 0 35.969 26.459 21.603 44.499-7.444 9.345-15.603 19.068-24.273 28.938h-97.513c-4.143 0-7.5 3.358-7.5 7.5s3.357 7.5 7.5 7.5h101.586c5.943 0 10.778 4.835 10.778 10.778s-4.835 10.778-10.778 10.778h-161.498c-5.943 0-10.778-4.835-10.778-10.778s4.835-10.778 10.778-10.778h24.853c4.143 0 7.5-3.358 7.5-7.5s-3.357-7.5-7.5-7.5h-20.78c-8.67-9.87-16.829-19.594-24.273-28.938-14.254-17.899-1.505-44.499 21.602-44.499zm161.891 482h-165.088c-74.206 0-138.2-58.9-138.2-137.936 0-29.408 15.301-66.647 45.478-110.684 22.752-33.204 53.58-69.716 91.619-108.555.952.107 1.918.167 2.899.167h161.498c.98 0 1.947-.06 2.899-.167 38.039 38.839 68.866 75.351 91.619 108.555 30.177 44.037 45.478 81.276 45.478 110.684-.002 80.004-65.033 137.936-138.202 137.936z"/><path d="m256 210.92c23.324 0 45.629 7.17 64.502 20.734 3.362 2.416 8.05 1.651 10.467-1.713 2.418-3.363 1.65-8.05-1.713-10.467-21.44-15.409-46.771-23.554-73.256-23.554-69.283 0-125.648 56.366-125.648 125.648 0 26.522 8.166 51.883 23.614 73.34 2.408 3.344 7.092 4.136 10.469 1.704 3.362-2.42 4.125-7.107 1.705-10.469-13.6-18.888-20.788-41.218-20.788-64.576 0-61.01 49.636-110.647 110.648-110.647z"/><path d="m345.858 244.491c-3.306 2.495-3.964 7.198-1.47 10.504 14.562 19.302 22.26 42.322 22.26 66.574 0 61.012-49.637 110.648-110.648 110.648-24.25 0-47.271-7.697-66.573-22.259-3.307-2.495-8.009-1.836-10.504 1.47-2.494 3.307-1.836 8.01 1.471 10.504 21.926 16.542 48.07 25.285 75.606 25.285 69.283 0 125.648-56.365 125.648-125.648 0-27.538-8.743-53.683-25.285-75.608-2.495-3.306-7.198-3.964-10.505-1.47z"/></g></g></g></svg>