<svg height="512pt" viewBox="-24 0 512 512" width="512pt" xmlns="http://www.w3.org/2000/svg"><path d="m456 440c0 35.347656-28.652344 64-64 64-35.34375 0-64-28.652344-64-64s28.65625-64 64-64c35.347656 0 64 28.652344 64 64zm0 0" fill="#a0d468"/><path d="m392 376c-5.535156 0-10.871094.785156-16 2.097656 27.59375 7.109375 48 32.078125 48 61.902344s-20.40625 54.800781-48 61.902344c5.128906 1.3125 10.464844 2.097656 16 2.097656 35.359375 0 64-28.640625 64-64s-28.640625-64-64-64zm0 0" fill="#8cc152"/><path d="m80 336v104h-56c-8.878906 0-16-7.128906-16-16v-88zm0 0" fill="#87bcf4"/><path d="m176 40h48v24h-48zm0 0" fill="#e6e9ed"/><path d="m307.519531 86.71875c-10.320312-27.277344-36.558593-46.71875-67.519531-46.71875h-80c-30.957031 0-57.277344 19.441406-67.4375 46.800781-3.121094-4.242187-4.5625-6.800781-4.5625-6.800781 0-39.761719 32.242188-72 72-72h80c39.761719 0 72 32.238281 72 72 0 0-1.4375 2.480469-4.480469 6.71875zm0 0" fill="#5d9cec"/><path d="m240 40c30.960938 0 57.199219 19.441406 67.519531 46.71875-11.199219 15.519531-44.476562 54.320312-107.519531 73.28125-62.957031-18.878906-96.160156-57.601562-107.4375-73.199219 10.160156-27.359375 36.480469-46.800781 67.4375-46.800781h16v24h48v-24zm0 0" fill="#4a89dc"/><path d="m200 160c63.042969-18.960938 96.320312-57.761719 107.519531-73.28125 3.042969-4.238281 4.480469-6.71875 4.480469-6.71875 0 35.839844-31.359375 119.679688-31.359375 119.679688l-56.320313-27.679688zm0 0" fill="#87bcf4"/><path d="m92.5625 86.800781c11.277344 15.597657 44.480469 54.320313 107.4375 73.199219l-24 11.839844-56.640625 27.839844s-31.359375-83.839844-31.359375-119.679688c0 0 1.441406 2.558594 4.5625 6.800781zm0 0" fill="#87bcf4"/><path d="m224.320312 172v268h-48.320312v-268.160156l24-11.839844zm0 0" fill="#4a89dc"/><path d="m280.640625 199.679688s31.359375-83.839844 31.359375-119.679688l80 24v272c-35.359375 0-64 28.640625-64 64h-103.679688v-268zm0 0" fill="#5d9cec"/><path d="m360 94.398438v290.226562c9.425781-5.457031 20.328125-8.625 32-8.625v-272zm0 0" fill="#4a89dc"/><path d="m80 336h-72v-232l80-24c0 35.839844 31.359375 119.679688 31.359375 119.679688l56.640625-27.839844v268.160156h-96zm0 0" fill="#5d9cec"/><path d="m8 312h72v24h-72zm0 0" fill="#87bcf4"/><path d="m200.242188 240c-4.425782 0-8.042969-3.585938-8.042969-8s3.539062-8 7.953125-8h.089844c4.414062 0 8 3.585938 8 8s-3.585938 8-8 8zm0 0"/><path d="m200.242188 312c-4.425782 0-8.042969-3.574219-8.042969-8s3.539062-8 7.953125-8h.089844c4.414062 0 8 3.574219 8 8s-3.585938 8-8 8zm0 0"/><path d="m200.242188 384c-4.425782 0-8.042969-3.574219-8.042969-8s3.539062-8 7.953125-8h.089844c4.414062 0 8 3.574219 8 8s-3.585938 8-8 8zm0 0"/><path d="m280.664062 207.671875c-1.183593 0-2.390624-.265625-3.519531-.824219l-80.671875-39.671875c-3.960937-1.953125-5.589844-6.742187-3.648437-10.710937 1.953125-3.96875 6.769531-5.59375 10.710937-3.648438l80.675782 39.671875c3.957031 1.953125 5.589843 6.742188 3.644531 10.710938-1.390625 2.832031-4.238281 4.472656-7.191407 4.472656zm0 0"/><path d="m280.671875 207.671875c-.925781 0-1.871094-.167969-2.796875-.511719-4.144531-1.542968-6.242188-6.152344-4.699219-10.296875.3125-.816406 30.824219-82.886719 30.824219-116.863281 0-4.414062 3.578125-8 8-8 4.425781 0 8 3.585938 8 8 0 36.855469-30.527344 118.992188-31.832031 122.472656-1.207031 3.214844-4.253907 5.199219-7.496094 5.199219zm0 0"/><path d="m119.335938 207.671875c-2.949219 0-5.800782-1.640625-7.183594-4.472656-1.941406-3.96875-.3125-8.757813 3.648437-10.710938l80.671875-39.671875c3.976563-1.945312 8.769532-.3125 10.710938 3.648438 1.945312 3.96875.3125 8.757812-3.648438 10.710937l-80.671875 39.671875c-1.132812.558594-2.351562.824219-3.527343.824219zm0 0"/><path d="m119.328125 207.671875c-3.238281 0-6.285156-1.992187-7.496094-5.199219-1.304687-3.480468-31.832031-85.617187-31.832031-122.472656 0-4.414062 3.578125-8 8-8 4.425781 0 8 3.585938 8 8 0 33.976562 30.511719 116.046875 30.824219 116.871094 1.542969 4.144531-.550781 8.753906-4.695313 10.296875-.929687.34375-1.871094.503906-2.800781.503906zm0 0"/><path d="m8 112c-3.445312 0-6.621094-2.238281-7.664062-5.703125-1.261719-4.234375 1.136718-8.6875 5.371093-9.960937l80-24c4.230469-1.246094 8.695313 1.136718 9.957031 5.367187 1.265626 4.234375-1.136718 8.6875-5.367187 9.960937l-80 24c-.769531.222657-1.535156.335938-2.296875.335938zm0 0"/><path d="m8 432c-4.421875 0-8-3.574219-8-8v-320c0-4.414062 3.578125-8 8-8 4.425781 0 8 3.585938 8 8v320c0 4.425781-3.574219 8-8 8zm0 0"/><path d="m24 448c-13.230469 0-24-10.769531-24-24 0-4.425781 3.578125-8 8-8 4.425781 0 8 3.574219 8 8 0 4.414062 3.585938 8 8 8 4.425781 0 8 3.574219 8 8s-3.574219 8-8 8zm0 0"/><path d="m392 112c-.757812 0-1.527344-.113281-2.292969-.335938l-80-24c-4.234375-1.273437-6.632812-5.726562-5.371093-9.960937 1.265624-4.230469 5.707031-6.640625 9.960937-5.367187l80 24c4.230469 1.273437 6.632813 5.726562 5.367187 9.960937-1.039062 3.472656-4.214843 5.703125-7.664062 5.703125zm0 0"/><path d="m392 384c-4.421875 0-8-3.574219-8-8v-272c0-4.414062 3.578125-8 8-8 4.425781 0 8 3.585938 8 8v272c0 4.425781-3.574219 8-8 8zm0 0"/><path d="m328 448h-304c-4.421875 0-8-3.574219-8-8s3.578125-8 8-8h304c4.425781 0 8 3.574219 8 8s-3.574219 8-8 8zm0 0"/><path d="m200 168c-3.445312 0-6.621094-2.238281-7.664062-5.703125-1.261719-4.234375 1.136718-8.6875 5.371093-9.960937 76.054688-22.816407 107.046875-75.777344 107.351563-76.304688 2.183594-3.839844 7.070312-5.175781 10.910156-2.976562 3.832031 2.191406 5.167969 7.082031 2.976562 10.914062-1.367187 2.398438-34.527343 59.054688-116.648437 83.695312-.769531.222657-1.535156.335938-2.296875.335938zm0 0"/><path d="m200 168c-.757812 0-1.527344-.113281-2.292969-.335938-82.121093-24.640624-115.28125-81.296874-116.648437-83.695312-2.195313-3.832031-.859375-8.722656 2.972656-10.914062 3.832031-2.191407 8.722656-.855469 10.90625 2.960937.304688.535156 31.65625 53.609375 107.359375 76.320313 4.230469 1.273437 6.632813 5.726562 5.367187 9.960937-1.039062 3.472656-4.214843 5.703125-7.664062 5.703125zm0 0"/><path d="m88 88c-4.421875 0-8-3.585938-8-8 0-44.113281 35.890625-80 80-80 4.425781 0 8 3.585938 8 8s-3.574219 8-8 8c-35.285156 0-64 28.710938-64 64 0 4.414062-3.574219 8-8 8zm0 0"/><path d="m312 88c-4.421875 0-8-3.585938-8-8 0-35.289062-28.710938-64-64-64-4.421875 0-8-3.585938-8-8s3.578125-8 8-8c44.113281 0 80 35.886719 80 80 0 4.414062-3.574219 8-8 8zm0 0"/><path d="m240 16h-80c-4.421875 0-8-3.585938-8-8s3.578125-8 8-8h80c4.425781 0 8 3.585938 8 8s-3.574219 8-8 8zm0 0"/><path d="m92.527344 94.792969c-.925782 0-1.871094-.167969-2.796875-.503907-4.144531-1.546874-6.242188-6.152343-4.699219-10.296874 11.609375-31.097657 41.738281-51.992188 74.96875-51.992188 4.425781 0 8 3.585938 8 8s-3.574219 8-8 8c-26.589844 0-50.695312 16.710938-59.976562 41.585938-1.191407 3.222656-4.246094 5.207031-7.496094 5.207031zm0 0"/><path d="m307.488281 94.824219c-3.238281 0-6.296875-1.992188-7.496093-5.207031-9.277344-24.898438-33.390626-41.617188-59.992188-41.617188-4.421875 0-8-3.585938-8-8s3.578125-8 8-8c33.25 0 63.378906 20.902344 74.976562 52.023438 1.542969 4.136718-.550781 8.746093-4.695312 10.289062-.921875.351562-1.863281.511719-2.792969.511719zm0 0"/><path d="m240 48h-80c-4.421875 0-8-3.585938-8-8s3.578125-8 8-8h80c4.425781 0 8 3.585938 8 8s-3.574219 8-8 8zm0 0"/><path d="m176 72c-4.421875 0-8-3.585938-8-8v-24c0-4.414062 3.578125-8 8-8 4.425781 0 8 3.585938 8 8v24c0 4.414062-3.574219 8-8 8zm0 0"/><path d="m224 72h-48c-4.421875 0-8-3.585938-8-8s3.578125-8 8-8h48c4.425781 0 8 3.585938 8 8s-3.574219 8-8 8zm0 0"/><path d="m224 72c-4.421875 0-8-3.585938-8-8v-24c0-4.414062 3.578125-8 8-8 4.425781 0 8 3.585938 8 8v24c0 4.414062-3.574219 8-8 8zm0 0"/><path d="m224.335938 448c-4.421876 0-8-3.574219-8-8v-268.199219c0-4.417969 3.578124-8 8-8 4.425781 0 8 3.582031 8 8v268.199219c0 4.425781-3.574219 8-8 8zm0 0"/><path d="m176 448c-4.421875 0-8-3.574219-8-8v-268.199219c0-4.417969 3.578125-8 8-8 4.425781 0 8 3.582031 8 8v268.199219c0 4.425781-3.574219 8-8 8zm0 0"/><path d="m80 320h-72c-4.421875 0-8-3.574219-8-8s3.578125-8 8-8h72c4.425781 0 8 3.574219 8 8s-3.574219 8-8 8zm0 0"/><path d="m80 344h-72c-4.421875 0-8-3.574219-8-8s3.578125-8 8-8h72c4.425781 0 8 3.574219 8 8s-3.574219 8-8 8zm0 0"/><path d="m80 448c-4.421875 0-8-3.574219-8-8v-128c0-4.425781 3.578125-8 8-8 4.425781 0 8 3.574219 8 8v128c0 4.425781-3.574219 8-8 8zm0 0"/><path d="m392 512c-39.703125 0-72-32.296875-72-72s32.296875-72 72-72c39.707031 0 72 32.296875 72 72s-32.292969 72-72 72zm0-128c-30.871094 0-56 25.128906-56 56s25.128906 56 56 56c30.875 0 56-25.128906 56-56s-25.125-56-56-56zm0 0"/><path d="m384 472c-2.046875 0-4.09375-.785156-5.65625-2.34375l-16-16c-3.125-3.128906-3.125-8.183594 0-11.3125 3.128906-3.128906 8.183594-3.128906 11.3125 0l16 16c3.128906 3.128906 3.128906 8.183594 0 11.3125-1.558594 1.558594-3.605469 2.34375-5.65625 2.34375zm0 0"/><path d="m384 472c-2.046875 0-4.09375-.785156-5.65625-2.34375-3.125-3.128906-3.125-8.183594 0-11.3125l40-40c3.128906-3.128906 8.183594-3.128906 11.3125 0s3.128906 8.183594 0 11.3125l-40 40c-1.558594 1.558594-3.605469 2.34375-5.65625 2.34375zm0 0"/></svg>